<svg width="154" height="27" viewBox="0 0 154 27" fill="none" xmlns="http://www.w3.org/2000/svg">
<path d="M2.43359 0.667969C2.43359 2.73047 2.43359 6.86719 2.43359 13.0781C4.96484 10.9922 10.0156 6.85547 17.5859 0.667969C18.2188 0.667969 19.1562 0.667969 20.3984 0.667969C17.8438 2.75391 14.0117 5.90625 8.90234 10.125C11.457 13.875 15.2891 19.5 20.3984 27C19.9297 27 19.2148 27 18.2539 27C15.8633 23.5078 12.2891 18.2695 7.53125 11.2852C6.38281 12.2227 4.68359 13.6172 2.43359 15.4688C2.43359 18.0234 2.43359 21.8672 2.43359 27C2.03516 27 1.4375 27 0.640625 27C0.640625 21.1406 0.640625 12.3633 0.640625 0.667969C1.03906 0.667969 1.63672 0.667969 2.43359 0.667969ZM42.4133 0.667969C43.6789 0.667969 44.8977 0.84375 46.0695 1.19531C47.2414 1.52344 48.3312 2.00391 49.3391 2.63672C51.2141 3.80859 52.7141 5.37891 53.8391 7.34766C54.9875 9.31641 55.5617 11.4727 55.5617 13.8164C55.5617 15.1055 55.3859 16.3359 55.0344 17.5078C54.7062 18.6797 54.2258 19.7695 53.593 20.7773C52.4211 22.6523 50.8508 24.1523 48.882 25.2773C46.9133 26.4258 44.757 27 42.4133 27C40.0461 27 37.8781 26.4258 35.9094 25.2773C33.9406 24.1523 32.3703 22.6523 31.1984 20.7773C30.5656 19.7695 30.0852 18.6797 29.757 17.5078C29.4055 16.3359 29.2297 15.1055 29.2297 13.8164C29.2297 12.5508 29.4055 11.332 29.757 10.1602C30.0852 8.98828 30.5656 7.89844 31.1984 6.89062C32.3703 5.01562 33.9406 3.51562 35.9094 2.39062C37.8781 1.24219 40.0461 0.667969 42.4133 0.667969ZM42.4133 25.207C43.4914 25.207 44.5461 25.0547 45.5773 24.75C46.5852 24.4453 47.5227 24.0234 48.3898 23.4844C50.007 22.5 51.3078 21.1523 52.2922 19.4414C53.2766 17.7539 53.7687 15.8789 53.7687 13.8164C53.7687 12.7383 53.6164 11.6836 53.3117 10.6523C53.0305 9.64453 52.6203 8.70703 52.0812 7.83984C51.0734 6.22266 49.7141 4.92188 48.0031 3.9375C46.3156 2.95312 44.4523 2.46094 42.4133 2.46094C41.3117 2.46094 40.257 2.61328 39.2492 2.91797C38.218 3.19922 37.2687 3.60937 36.4016 4.14844C34.7844 5.15625 33.4836 6.51563 32.4992 8.22656C31.5148 9.91406 31.0227 11.7773 31.0227 13.8164C31.0227 14.918 31.175 15.9727 31.4797 16.9805C31.7609 18.0117 32.1711 18.9609 32.7102 19.8281C33.718 21.4453 35.0656 22.7461 36.7531 23.7305C38.4641 24.7148 40.3508 25.207 42.4133 25.207ZM82.3578 21.9375C82.3578 18.3984 82.3578 11.3086 82.3578 0.667969C82.6625 0.667969 83.2602 0.667969 84.1508 0.667969C84.1508 6.52734 84.1508 15.3047 84.1508 27C80.1664 22.2891 74.1781 15.2227 66.1859 5.80078C66.1859 10.5117 66.1859 17.5781 66.1859 27C65.7875 27 65.1898 27 64.393 27C64.393 21.1406 64.393 12.3633 64.393 0.667969C68.3773 5.40234 74.3656 12.4922 82.3578 21.9375ZM112.705 0.667969C112.705 0.972656 112.705 1.57031 112.705 2.46094C109.728 2.46094 103.752 2.46094 94.775 2.46094C94.775 6.25781 94.775 11.9648 94.775 19.582C96.5797 19.582 99.275 19.582 102.861 19.582C102.861 20.0039 102.861 20.6133 102.861 21.4102C101.056 21.4102 98.3609 21.4102 94.775 21.4102C94.775 22.6523 94.775 24.5156 94.775 27C94.3766 27 93.7789 27 92.982 27C92.982 21.1406 92.982 12.3633 92.982 0.667969C97.3648 0.667969 103.939 0.667969 112.705 0.667969ZM124.77 0.667969C124.77 5.05078 124.77 13.8281 124.77 27C124.77 27 124.477 27 123.891 27C123.282 27 122.977 27 122.977 27C122.977 21.1406 122.977 12.3633 122.977 0.667969C123.376 0.667969 123.973 0.667969 124.77 0.667969ZM133.602 0.667969C133.602 5.05078 133.602 13.8281 133.602 27C136.883 27 143.469 27 153.359 27C153.359 26.6016 153.359 26.0039 153.359 25.207C149.352 25.207 143.363 25.207 135.395 25.207C135.395 24.3633 135.395 23.0977 135.395 21.4102C137.199 21.4102 139.895 21.4102 143.48 21.4102C143.48 21.0117 143.48 20.4023 143.48 19.582C141.676 19.582 138.98 19.582 135.395 19.582C135.395 15.7852 135.395 10.0781 135.395 2.46094C139.379 2.46094 145.355 2.46094 153.324 2.46094C153.324 2.0625 153.324 1.46484 153.324 0.667969C148.941 0.667969 142.367 0.667969 133.602 0.667969Z" fill="black"/>
</svg>
